<?xml version="1.0" standalone="no"?>
<!DOCTYPE svg PUBLIC "-//W3C//DTD SVG 20010904//EN"
 "http://www.w3.org/TR/2001/REC-SVG-20010904/DTD/svg10.dtd">
<svg version="1.0" xmlns="http://www.w3.org/2000/svg"
 width="1217.000000pt" height="1182.000000pt" viewBox="0 0 1217.000000 1182.000000"
 preserveAspectRatio="xMidYMid meet">

<g transform="translate(0.000000,1182.000000) scale(0.100000,-0.100000)"
fill="#000000" stroke="none">
<path d="M970 6390 l0 -4060 2725 0 2725 0 0 700 0 700 -1925 0 -1925 0 0
1160 0 1160 1175 0 1175 0 0 600 0 600 -1175 0 -1175 0 0 895 0 895 1925 0
1925 0 0 705 0 705 -2725 0 -2725 0 0 -4060z"/>
<path d="M9390 7395 l0 -1685 -1060 0 -1060 0 0 975 0 975 -700 0 -700 0 0
-975 0 -975 -1595 0 -1595 0 0 -805 0 -805 4060 0 4060 0 0 2490 0 2490 -705
0 -705 0 0 -1685z"/>
</g>
</svg>
